<mxfile host="app.diagrams.net" modified="2023-03-08T06:51:40.297Z" agent="5.0 (Windows NT 10.0; Win64; x64) AppleWebKit/537.36 (KHTML, like Gecko) Chrome/110.0.0.0 Safari/537.36" etag="PtaDQ67PdSoEryNdT_wh" version="21.0.2" type="github" pages="7">
  <diagram id="O7pPCtJhnp9RhiGo_q5N" name="运行时数据区域（旧）">
    <mxGraphModel dx="794" dy="438" grid="1" gridSize="10" guides="1" tooltips="1" connect="1" arrows="1" fold="1" page="1" pageScale="1" pageWidth="1169" pageHeight="827" math="0" shadow="0">
      <root>
        <mxCell id="0" />
        <mxCell id="1" parent="0" />
        <mxCell id="61ENZFUCJouTjVSc7NG1-1" value="" style="rounded=1;whiteSpace=wrap;html=1;dashed=1;" parent="1" vertex="1">
          <mxGeometry x="60" y="90" width="300" height="250" as="geometry" />
        </mxCell>
        <mxCell id="61ENZFUCJouTjVSc7NG1-2" value="" style="rounded=1;whiteSpace=wrap;html=1;fillColor=#e1d5e7;strokeColor=#9673a6;" parent="1" vertex="1">
          <mxGeometry x="70" y="130" width="140" height="140" as="geometry" />
        </mxCell>
        <mxCell id="61ENZFUCJouTjVSc7NG1-3" value="运行时常量池" style="rounded=0;whiteSpace=wrap;html=1;fillColor=#dae8fc;strokeColor=#6c8ebf;" parent="1" vertex="1">
          <mxGeometry x="230" y="140" width="120" height="40" as="geometry" />
        </mxCell>
        <mxCell id="61ENZFUCJouTjVSc7NG1-4" value="JIT代码缓存" style="rounded=0;whiteSpace=wrap;html=1;fillColor=#fff2cc;strokeColor=#d6b656;" parent="1" vertex="1">
          <mxGeometry x="80" y="280" width="120" height="40" as="geometry" />
        </mxCell>
        <mxCell id="61ENZFUCJouTjVSc7NG1-5" value="字符串常量池" style="rounded=0;whiteSpace=wrap;html=1;fillColor=#d5e8d4;strokeColor=#82b366;" parent="1" vertex="1">
          <mxGeometry x="230" y="210" width="120" height="40" as="geometry" />
        </mxCell>
        <mxCell id="61ENZFUCJouTjVSc7NG1-6" value="静态变量" style="rounded=0;whiteSpace=wrap;html=1;fillColor=#fad9d5;strokeColor=#ae4132;" parent="1" vertex="1">
          <mxGeometry x="230" y="280" width="120" height="40" as="geometry" />
        </mxCell>
        <mxCell id="61ENZFUCJouTjVSc7NG1-7" value="" style="rounded=1;whiteSpace=wrap;html=1;dashed=1;" parent="1" vertex="1">
          <mxGeometry x="390" y="90" width="90" height="250" as="geometry" />
        </mxCell>
        <mxCell id="61ENZFUCJouTjVSc7NG1-8" value="类信息" style="rounded=0;whiteSpace=wrap;html=1;" parent="1" vertex="1">
          <mxGeometry x="85" y="145" width="110" height="30" as="geometry" />
        </mxCell>
        <mxCell id="61ENZFUCJouTjVSc7NG1-9" value="字段信息" style="rounded=0;whiteSpace=wrap;html=1;" parent="1" vertex="1">
          <mxGeometry x="85" y="180" width="110" height="30" as="geometry" />
        </mxCell>
        <mxCell id="61ENZFUCJouTjVSc7NG1-10" value="方法表" style="rounded=0;whiteSpace=wrap;html=1;" parent="1" vertex="1">
          <mxGeometry x="85" y="230" width="110" height="30" as="geometry" />
        </mxCell>
        <mxCell id="61ENZFUCJouTjVSc7NG1-11" value="" style="endArrow=none;dashed=1;html=1;rounded=0;dashPattern=1 2;" parent="1" edge="1">
          <mxGeometry width="50" height="50" relative="1" as="geometry">
            <mxPoint x="125" y="220" as="sourcePoint" />
            <mxPoint x="155" y="220" as="targetPoint" />
          </mxGeometry>
        </mxCell>
        <mxCell id="61ENZFUCJouTjVSc7NG1-12" value="堆" style="text;html=1;strokeColor=none;fillColor=none;align=center;verticalAlign=middle;whiteSpace=wrap;rounded=0;" parent="1" vertex="1">
          <mxGeometry x="405" y="200" width="60" height="30" as="geometry" />
        </mxCell>
        <mxCell id="61ENZFUCJouTjVSc7NG1-13" value="方法区（永久代）" style="text;html=1;strokeColor=none;fillColor=none;align=center;verticalAlign=middle;whiteSpace=wrap;rounded=0;" parent="1" vertex="1">
          <mxGeometry x="160" y="90" width="100" height="30" as="geometry" />
        </mxCell>
        <mxCell id="F_WqrLouc-fiusGOSplc-1" value="JDK7 前" style="text;html=1;strokeColor=none;fillColor=none;align=center;verticalAlign=middle;whiteSpace=wrap;rounded=0;" parent="1" vertex="1">
          <mxGeometry x="250" y="340" width="60" height="30" as="geometry" />
        </mxCell>
      </root>
    </mxGraphModel>
  </diagram>
  <diagram id="M7XKdc1zeiAv-hPEmWxM" name="运行时数据区（新）">
    <mxGraphModel dx="794" dy="438" grid="1" gridSize="10" guides="1" tooltips="1" connect="1" arrows="1" fold="1" page="1" pageScale="1" pageWidth="1169" pageHeight="827" math="0" shadow="0">
      <root>
        <mxCell id="0" />
        <mxCell id="1" parent="0" />
        <mxCell id="ehPr-6aGS_VOLnWbq9fu-1" value="" style="rounded=1;whiteSpace=wrap;html=1;dashed=1;" parent="1" vertex="1">
          <mxGeometry x="60" y="90" width="300" height="250" as="geometry" />
        </mxCell>
        <mxCell id="ehPr-6aGS_VOLnWbq9fu-2" value="" style="rounded=1;whiteSpace=wrap;html=1;fillColor=#e1d5e7;strokeColor=#9673a6;" parent="1" vertex="1">
          <mxGeometry x="70" y="130" width="140" height="140" as="geometry" />
        </mxCell>
        <mxCell id="ehPr-6aGS_VOLnWbq9fu-3" value="运行时常量池" style="rounded=0;whiteSpace=wrap;html=1;fillColor=#dae8fc;strokeColor=#6c8ebf;" parent="1" vertex="1">
          <mxGeometry x="230" y="140" width="120" height="40" as="geometry" />
        </mxCell>
        <mxCell id="ehPr-6aGS_VOLnWbq9fu-4" value="JIT代码缓存" style="rounded=0;whiteSpace=wrap;html=1;fillColor=#fff2cc;strokeColor=#d6b656;" parent="1" vertex="1">
          <mxGeometry x="230" y="230" width="120" height="40" as="geometry" />
        </mxCell>
        <mxCell id="ehPr-6aGS_VOLnWbq9fu-7" value="" style="rounded=1;whiteSpace=wrap;html=1;dashed=1;" parent="1" vertex="1">
          <mxGeometry x="390" y="90" width="110" height="250" as="geometry" />
        </mxCell>
        <mxCell id="ehPr-6aGS_VOLnWbq9fu-5" value="字符串常量池" style="rounded=0;whiteSpace=wrap;html=1;fillColor=#d5e8d4;strokeColor=#82b366;" parent="1" vertex="1">
          <mxGeometry x="397.5" y="160" width="95" height="40" as="geometry" />
        </mxCell>
        <mxCell id="ehPr-6aGS_VOLnWbq9fu-6" value="静态变量" style="rounded=0;whiteSpace=wrap;html=1;fillColor=#fad9d5;strokeColor=#ae4132;" parent="1" vertex="1">
          <mxGeometry x="397.5" y="230" width="95" height="40" as="geometry" />
        </mxCell>
        <mxCell id="ehPr-6aGS_VOLnWbq9fu-8" value="类信息" style="rounded=0;whiteSpace=wrap;html=1;" parent="1" vertex="1">
          <mxGeometry x="85" y="145" width="110" height="30" as="geometry" />
        </mxCell>
        <mxCell id="ehPr-6aGS_VOLnWbq9fu-9" value="字段信息" style="rounded=0;whiteSpace=wrap;html=1;" parent="1" vertex="1">
          <mxGeometry x="85" y="180" width="110" height="30" as="geometry" />
        </mxCell>
        <mxCell id="ehPr-6aGS_VOLnWbq9fu-10" value="方法表" style="rounded=0;whiteSpace=wrap;html=1;" parent="1" vertex="1">
          <mxGeometry x="85" y="230" width="110" height="30" as="geometry" />
        </mxCell>
        <mxCell id="ehPr-6aGS_VOLnWbq9fu-11" value="" style="endArrow=none;dashed=1;html=1;rounded=0;dashPattern=1 2;" parent="1" edge="1">
          <mxGeometry width="50" height="50" relative="1" as="geometry">
            <mxPoint x="125" y="220" as="sourcePoint" />
            <mxPoint x="155" y="220" as="targetPoint" />
          </mxGeometry>
        </mxCell>
        <mxCell id="ehPr-6aGS_VOLnWbq9fu-12" value="堆" style="text;html=1;strokeColor=none;fillColor=none;align=center;verticalAlign=middle;whiteSpace=wrap;rounded=0;" parent="1" vertex="1">
          <mxGeometry x="415" y="90" width="60" height="30" as="geometry" />
        </mxCell>
        <mxCell id="ehPr-6aGS_VOLnWbq9fu-13" value="方法区（元空间）" style="text;html=1;strokeColor=none;fillColor=none;align=center;verticalAlign=middle;whiteSpace=wrap;rounded=0;" parent="1" vertex="1">
          <mxGeometry x="160" y="90" width="100" height="30" as="geometry" />
        </mxCell>
        <mxCell id="Vxt12ZsmdVxl1m9o9zwd-1" value="JDK7 后" style="text;html=1;strokeColor=none;fillColor=none;align=center;verticalAlign=middle;whiteSpace=wrap;rounded=0;" parent="1" vertex="1">
          <mxGeometry x="250" y="340" width="60" height="30" as="geometry" />
        </mxCell>
      </root>
    </mxGraphModel>
  </diagram>
  <diagram id="npRzdgTZOrqjE8euAb5X" name="Class文件结构">
    <mxGraphModel dx="794" dy="438" grid="1" gridSize="10" guides="1" tooltips="1" connect="1" arrows="1" fold="1" page="1" pageScale="1" pageWidth="1169" pageHeight="827" math="0" shadow="0">
      <root>
        <mxCell id="0" />
        <mxCell id="1" parent="0" />
        <mxCell id="uu0pwe-w9cz8ctn64l3--2" value="CA" style="rounded=0;whiteSpace=wrap;html=1;fillColor=#eeeeee;strokeColor=#36393d;" parent="1" vertex="1">
          <mxGeometry x="70" y="120" width="30" height="30" as="geometry" />
        </mxCell>
        <mxCell id="uu0pwe-w9cz8ctn64l3--3" value="FE" style="rounded=0;whiteSpace=wrap;html=1;fillColor=#eeeeee;strokeColor=#36393d;" parent="1" vertex="1">
          <mxGeometry x="100" y="120" width="30" height="30" as="geometry" />
        </mxCell>
        <mxCell id="uu0pwe-w9cz8ctn64l3--4" value="BA" style="rounded=0;whiteSpace=wrap;html=1;fillColor=#eeeeee;strokeColor=#36393d;" parent="1" vertex="1">
          <mxGeometry x="130" y="120" width="30" height="30" as="geometry" />
        </mxCell>
        <mxCell id="uu0pwe-w9cz8ctn64l3--5" value="BE" style="rounded=0;whiteSpace=wrap;html=1;fillColor=#eeeeee;strokeColor=#36393d;" parent="1" vertex="1">
          <mxGeometry x="160" y="120" width="30" height="30" as="geometry" />
        </mxCell>
        <mxCell id="uu0pwe-w9cz8ctn64l3--6" value="Minor&lt;br&gt;Version" style="rounded=0;whiteSpace=wrap;html=1;fillColor=#eeeeee;strokeColor=#36393d;" parent="1" vertex="1">
          <mxGeometry x="210" y="120" width="80" height="30" as="geometry" />
        </mxCell>
        <mxCell id="uu0pwe-w9cz8ctn64l3--7" value="Major&lt;br&gt;Version" style="rounded=0;whiteSpace=wrap;html=1;fillColor=#eeeeee;strokeColor=#36393d;" parent="1" vertex="1">
          <mxGeometry x="310" y="120" width="80" height="30" as="geometry" />
        </mxCell>
        <mxCell id="uu0pwe-w9cz8ctn64l3--8" value="Constant Pool&lt;br&gt;Count" style="rounded=0;whiteSpace=wrap;html=1;" parent="1" vertex="1">
          <mxGeometry x="70" y="160" width="90" height="30" as="geometry" />
        </mxCell>
        <mxCell id="uu0pwe-w9cz8ctn64l3--9" value="Constant Pool" style="rounded=0;whiteSpace=wrap;html=1;" parent="1" vertex="1">
          <mxGeometry x="170" y="160" width="220" height="30" as="geometry" />
        </mxCell>
        <mxCell id="uu0pwe-w9cz8ctn64l3--10" value="Access Flags" style="rounded=0;whiteSpace=wrap;html=1;" parent="1" vertex="1">
          <mxGeometry x="70" y="200" width="90" height="30" as="geometry" />
        </mxCell>
        <mxCell id="uu0pwe-w9cz8ctn64l3--11" value="This Class" style="rounded=0;whiteSpace=wrap;html=1;" parent="1" vertex="1">
          <mxGeometry x="170" y="200" width="100" height="30" as="geometry" />
        </mxCell>
        <mxCell id="uu0pwe-w9cz8ctn64l3--12" value="Super Class" style="rounded=0;whiteSpace=wrap;html=1;" parent="1" vertex="1">
          <mxGeometry x="280" y="200" width="110" height="30" as="geometry" />
        </mxCell>
        <mxCell id="uu0pwe-w9cz8ctn64l3--13" value="Interface Count" style="rounded=0;whiteSpace=wrap;html=1;" parent="1" vertex="1">
          <mxGeometry x="70" y="240" width="90" height="30" as="geometry" />
        </mxCell>
        <mxCell id="uu0pwe-w9cz8ctn64l3--14" value="Interfaces" style="rounded=0;whiteSpace=wrap;html=1;" parent="1" vertex="1">
          <mxGeometry x="170" y="240" width="220" height="30" as="geometry" />
        </mxCell>
        <mxCell id="uu0pwe-w9cz8ctn64l3--15" value="Field Count" style="rounded=0;whiteSpace=wrap;html=1;" parent="1" vertex="1">
          <mxGeometry x="70" y="280" width="90" height="30" as="geometry" />
        </mxCell>
        <mxCell id="uu0pwe-w9cz8ctn64l3--16" value="Fields" style="rounded=0;whiteSpace=wrap;html=1;" parent="1" vertex="1">
          <mxGeometry x="170" y="280" width="220" height="30" as="geometry" />
        </mxCell>
        <mxCell id="uu0pwe-w9cz8ctn64l3--19" value="Method Count" style="rounded=0;whiteSpace=wrap;html=1;" parent="1" vertex="1">
          <mxGeometry x="70" y="320" width="90" height="30" as="geometry" />
        </mxCell>
        <mxCell id="uu0pwe-w9cz8ctn64l3--20" value="Methods" style="rounded=0;whiteSpace=wrap;html=1;" parent="1" vertex="1">
          <mxGeometry x="170" y="320" width="220" height="30" as="geometry" />
        </mxCell>
        <mxCell id="uu0pwe-w9cz8ctn64l3--21" value="Attribute Count" style="rounded=0;whiteSpace=wrap;html=1;" parent="1" vertex="1">
          <mxGeometry x="70" y="360" width="90" height="30" as="geometry" />
        </mxCell>
        <mxCell id="uu0pwe-w9cz8ctn64l3--22" value="Attributes" style="rounded=0;whiteSpace=wrap;html=1;" parent="1" vertex="1">
          <mxGeometry x="170" y="360" width="220" height="30" as="geometry" />
        </mxCell>
      </root>
    </mxGraphModel>
  </diagram>
  <diagram id="1jDtUbSup9iO6Hdteqcz" name="类加载过程">
    <mxGraphModel dx="794" dy="438" grid="1" gridSize="10" guides="1" tooltips="1" connect="1" arrows="1" fold="1" page="1" pageScale="1" pageWidth="1169" pageHeight="827" math="0" shadow="0">
      <root>
        <mxCell id="0" />
        <mxCell id="1" parent="0" />
        <mxCell id="nuxdcRzM0I9NVg_KrsYW-1" value="加载" style="rounded=0;whiteSpace=wrap;html=1;" parent="1" vertex="1">
          <mxGeometry x="60" y="170" width="60" height="40" as="geometry" />
        </mxCell>
        <mxCell id="nuxdcRzM0I9NVg_KrsYW-2" value="连接" style="rounded=0;whiteSpace=wrap;html=1;" parent="1" vertex="1">
          <mxGeometry x="160" y="170" width="60" height="40" as="geometry" />
        </mxCell>
        <mxCell id="nuxdcRzM0I9NVg_KrsYW-3" value="初始化" style="rounded=0;whiteSpace=wrap;html=1;" parent="1" vertex="1">
          <mxGeometry x="260" y="170" width="60" height="40" as="geometry" />
        </mxCell>
        <mxCell id="nuxdcRzM0I9NVg_KrsYW-4" value="使用" style="rounded=0;whiteSpace=wrap;html=1;" parent="1" vertex="1">
          <mxGeometry x="360" y="170" width="60" height="40" as="geometry" />
        </mxCell>
        <mxCell id="nuxdcRzM0I9NVg_KrsYW-5" value="卸载" style="rounded=0;whiteSpace=wrap;html=1;" parent="1" vertex="1">
          <mxGeometry x="460" y="170" width="60" height="40" as="geometry" />
        </mxCell>
        <mxCell id="nuxdcRzM0I9NVg_KrsYW-6" value="验证" style="rounded=0;whiteSpace=wrap;html=1;" parent="1" vertex="1">
          <mxGeometry x="80" y="250" width="60" height="40" as="geometry" />
        </mxCell>
        <mxCell id="nuxdcRzM0I9NVg_KrsYW-7" value="准备" style="rounded=0;whiteSpace=wrap;html=1;" parent="1" vertex="1">
          <mxGeometry x="180" y="250" width="60" height="40" as="geometry" />
        </mxCell>
        <mxCell id="nuxdcRzM0I9NVg_KrsYW-8" value="解析" style="rounded=0;whiteSpace=wrap;html=1;" parent="1" vertex="1">
          <mxGeometry x="280" y="250" width="60" height="40" as="geometry" />
        </mxCell>
        <mxCell id="nuxdcRzM0I9NVg_KrsYW-9" value="" style="endArrow=classic;html=1;rounded=0;entryX=0;entryY=0.5;entryDx=0;entryDy=0;" parent="1" source="nuxdcRzM0I9NVg_KrsYW-1" target="nuxdcRzM0I9NVg_KrsYW-2" edge="1">
          <mxGeometry width="50" height="50" relative="1" as="geometry">
            <mxPoint x="380" y="260" as="sourcePoint" />
            <mxPoint x="430" y="210" as="targetPoint" />
          </mxGeometry>
        </mxCell>
        <mxCell id="nuxdcRzM0I9NVg_KrsYW-10" value="" style="endArrow=classic;html=1;rounded=0;exitX=1;exitY=0.5;exitDx=0;exitDy=0;" parent="1" source="nuxdcRzM0I9NVg_KrsYW-2" target="nuxdcRzM0I9NVg_KrsYW-3" edge="1">
          <mxGeometry width="50" height="50" relative="1" as="geometry">
            <mxPoint x="380" y="260" as="sourcePoint" />
            <mxPoint x="430" y="210" as="targetPoint" />
          </mxGeometry>
        </mxCell>
        <mxCell id="nuxdcRzM0I9NVg_KrsYW-11" value="" style="endArrow=classic;html=1;rounded=0;exitX=1;exitY=0.5;exitDx=0;exitDy=0;entryX=0;entryY=0.5;entryDx=0;entryDy=0;" parent="1" source="nuxdcRzM0I9NVg_KrsYW-3" target="nuxdcRzM0I9NVg_KrsYW-4" edge="1">
          <mxGeometry width="50" height="50" relative="1" as="geometry">
            <mxPoint x="380" y="260" as="sourcePoint" />
            <mxPoint x="430" y="210" as="targetPoint" />
          </mxGeometry>
        </mxCell>
        <mxCell id="nuxdcRzM0I9NVg_KrsYW-12" value="" style="endArrow=classic;html=1;rounded=0;entryX=0;entryY=0.5;entryDx=0;entryDy=0;exitX=1;exitY=0.5;exitDx=0;exitDy=0;" parent="1" source="nuxdcRzM0I9NVg_KrsYW-4" target="nuxdcRzM0I9NVg_KrsYW-5" edge="1">
          <mxGeometry width="50" height="50" relative="1" as="geometry">
            <mxPoint x="380" y="260" as="sourcePoint" />
            <mxPoint x="430" y="210" as="targetPoint" />
          </mxGeometry>
        </mxCell>
        <mxCell id="nuxdcRzM0I9NVg_KrsYW-13" value="" style="endArrow=none;dashed=1;html=1;rounded=0;exitX=0.5;exitY=0;exitDx=0;exitDy=0;entryX=0.25;entryY=1;entryDx=0;entryDy=0;" parent="1" source="nuxdcRzM0I9NVg_KrsYW-6" target="nuxdcRzM0I9NVg_KrsYW-2" edge="1">
          <mxGeometry width="50" height="50" relative="1" as="geometry">
            <mxPoint x="380" y="260" as="sourcePoint" />
            <mxPoint x="430" y="210" as="targetPoint" />
          </mxGeometry>
        </mxCell>
        <mxCell id="nuxdcRzM0I9NVg_KrsYW-14" value="" style="endArrow=classic;html=1;rounded=0;exitX=1;exitY=0.5;exitDx=0;exitDy=0;entryX=0;entryY=0.5;entryDx=0;entryDy=0;" parent="1" source="nuxdcRzM0I9NVg_KrsYW-6" target="nuxdcRzM0I9NVg_KrsYW-7" edge="1">
          <mxGeometry width="50" height="50" relative="1" as="geometry">
            <mxPoint x="380" y="260" as="sourcePoint" />
            <mxPoint x="430" y="210" as="targetPoint" />
          </mxGeometry>
        </mxCell>
        <mxCell id="nuxdcRzM0I9NVg_KrsYW-15" value="" style="endArrow=classic;html=1;rounded=0;exitX=1;exitY=0.5;exitDx=0;exitDy=0;" parent="1" source="nuxdcRzM0I9NVg_KrsYW-7" target="nuxdcRzM0I9NVg_KrsYW-8" edge="1">
          <mxGeometry width="50" height="50" relative="1" as="geometry">
            <mxPoint x="380" y="260" as="sourcePoint" />
            <mxPoint x="430" y="210" as="targetPoint" />
          </mxGeometry>
        </mxCell>
        <mxCell id="nuxdcRzM0I9NVg_KrsYW-16" value="" style="endArrow=none;dashed=1;html=1;rounded=0;entryX=0.75;entryY=1;entryDx=0;entryDy=0;exitX=0.5;exitY=0;exitDx=0;exitDy=0;" parent="1" source="nuxdcRzM0I9NVg_KrsYW-8" target="nuxdcRzM0I9NVg_KrsYW-2" edge="1">
          <mxGeometry width="50" height="50" relative="1" as="geometry">
            <mxPoint x="380" y="260" as="sourcePoint" />
            <mxPoint x="430" y="210" as="targetPoint" />
          </mxGeometry>
        </mxCell>
      </root>
    </mxGraphModel>
  </diagram>
  <diagram id="Eys1THCIywSuU76v6FYN" name="Serial收集器">
    <mxGraphModel dx="794" dy="438" grid="1" gridSize="10" guides="1" tooltips="1" connect="1" arrows="1" fold="1" page="1" pageScale="1" pageWidth="1169" pageHeight="827" math="0" shadow="0">
      <root>
        <mxCell id="0" />
        <mxCell id="1" parent="0" />
        <mxCell id="eQBqYXtXVvJBzuw9Swjc-1" value="" style="shape=singleArrow;whiteSpace=wrap;html=1;" vertex="1" parent="1">
          <mxGeometry x="110" y="150" width="80" height="20" as="geometry" />
        </mxCell>
        <mxCell id="eQBqYXtXVvJBzuw9Swjc-2" value="" style="shape=singleArrow;whiteSpace=wrap;html=1;" vertex="1" parent="1">
          <mxGeometry x="110" y="180" width="80" height="20" as="geometry" />
        </mxCell>
        <mxCell id="eQBqYXtXVvJBzuw9Swjc-3" value="" style="shape=singleArrow;whiteSpace=wrap;html=1;" vertex="1" parent="1">
          <mxGeometry x="110" y="210" width="80" height="20" as="geometry" />
        </mxCell>
        <mxCell id="eQBqYXtXVvJBzuw9Swjc-4" value="" style="shape=singleArrow;whiteSpace=wrap;html=1;" vertex="1" parent="1">
          <mxGeometry x="110" y="240" width="80" height="20" as="geometry" />
        </mxCell>
        <mxCell id="eQBqYXtXVvJBzuw9Swjc-6" value="" style="rounded=0;whiteSpace=wrap;html=1;fillColor=#000000;" vertex="1" parent="1">
          <mxGeometry x="200" y="150" width="10" height="110" as="geometry" />
        </mxCell>
        <mxCell id="eQBqYXtXVvJBzuw9Swjc-8" value="" style="shape=singleArrow;whiteSpace=wrap;html=1;fillColor=#999999;" vertex="1" parent="1">
          <mxGeometry x="216" y="195" width="80" height="20" as="geometry" />
        </mxCell>
        <mxCell id="eQBqYXtXVvJBzuw9Swjc-9" value="" style="rounded=0;whiteSpace=wrap;html=1;fillColor=#666666;" vertex="1" parent="1">
          <mxGeometry x="300" y="150" width="10" height="110" as="geometry" />
        </mxCell>
        <mxCell id="eQBqYXtXVvJBzuw9Swjc-10" value="" style="shape=singleArrow;whiteSpace=wrap;html=1;" vertex="1" parent="1">
          <mxGeometry x="320" y="150" width="80" height="20" as="geometry" />
        </mxCell>
        <mxCell id="eQBqYXtXVvJBzuw9Swjc-11" value="" style="shape=singleArrow;whiteSpace=wrap;html=1;" vertex="1" parent="1">
          <mxGeometry x="320" y="180" width="80" height="20" as="geometry" />
        </mxCell>
        <mxCell id="eQBqYXtXVvJBzuw9Swjc-12" value="" style="shape=singleArrow;whiteSpace=wrap;html=1;" vertex="1" parent="1">
          <mxGeometry x="320" y="210" width="80" height="20" as="geometry" />
        </mxCell>
        <mxCell id="eQBqYXtXVvJBzuw9Swjc-13" value="" style="shape=singleArrow;whiteSpace=wrap;html=1;" vertex="1" parent="1">
          <mxGeometry x="320" y="240" width="80" height="20" as="geometry" />
        </mxCell>
        <mxCell id="eQBqYXtXVvJBzuw9Swjc-14" value="" style="rounded=0;whiteSpace=wrap;html=1;fillColor=#000000;" vertex="1" parent="1">
          <mxGeometry x="410" y="150" width="10" height="110" as="geometry" />
        </mxCell>
        <mxCell id="eQBqYXtXVvJBzuw9Swjc-15" value="" style="shape=singleArrow;whiteSpace=wrap;html=1;fillColor=#999999;" vertex="1" parent="1">
          <mxGeometry x="426" y="195" width="80" height="20" as="geometry" />
        </mxCell>
        <mxCell id="eQBqYXtXVvJBzuw9Swjc-16" value="" style="rounded=0;whiteSpace=wrap;html=1;fillColor=#666666;" vertex="1" parent="1">
          <mxGeometry x="510" y="150" width="10" height="110" as="geometry" />
        </mxCell>
        <mxCell id="eQBqYXtXVvJBzuw9Swjc-17" value="" style="shape=singleArrow;whiteSpace=wrap;html=1;" vertex="1" parent="1">
          <mxGeometry x="530" y="150" width="80" height="20" as="geometry" />
        </mxCell>
        <mxCell id="eQBqYXtXVvJBzuw9Swjc-18" value="" style="shape=singleArrow;whiteSpace=wrap;html=1;" vertex="1" parent="1">
          <mxGeometry x="530" y="180" width="80" height="20" as="geometry" />
        </mxCell>
        <mxCell id="eQBqYXtXVvJBzuw9Swjc-19" value="" style="shape=singleArrow;whiteSpace=wrap;html=1;" vertex="1" parent="1">
          <mxGeometry x="530" y="210" width="80" height="20" as="geometry" />
        </mxCell>
        <mxCell id="eQBqYXtXVvJBzuw9Swjc-20" value="" style="shape=singleArrow;whiteSpace=wrap;html=1;" vertex="1" parent="1">
          <mxGeometry x="530" y="240" width="80" height="20" as="geometry" />
        </mxCell>
        <mxCell id="eQBqYXtXVvJBzuw9Swjc-21" value="用户线程" style="text;html=1;strokeColor=none;fillColor=none;align=center;verticalAlign=middle;whiteSpace=wrap;rounded=0;" vertex="1" parent="1">
          <mxGeometry x="120" y="120" width="60" height="30" as="geometry" />
        </mxCell>
        <mxCell id="eQBqYXtXVvJBzuw9Swjc-22" value="GC 线程" style="text;html=1;strokeColor=none;fillColor=none;align=center;verticalAlign=middle;whiteSpace=wrap;rounded=0;" vertex="1" parent="1">
          <mxGeometry x="226" y="169" width="60" height="30" as="geometry" />
        </mxCell>
        <mxCell id="eQBqYXtXVvJBzuw9Swjc-23" value="暂停所有的用户线程" style="text;html=1;strokeColor=none;fillColor=none;align=center;verticalAlign=middle;whiteSpace=wrap;rounded=0;" vertex="1" parent="1">
          <mxGeometry x="224" y="222" width="64" height="30" as="geometry" />
        </mxCell>
        <mxCell id="eQBqYXtXVvJBzuw9Swjc-24" value="用户线程" style="text;html=1;strokeColor=none;fillColor=none;align=center;verticalAlign=middle;whiteSpace=wrap;rounded=0;" vertex="1" parent="1">
          <mxGeometry x="330" y="120" width="60" height="30" as="geometry" />
        </mxCell>
        <mxCell id="eQBqYXtXVvJBzuw9Swjc-25" value="GC 线程" style="text;html=1;strokeColor=none;fillColor=none;align=center;verticalAlign=middle;whiteSpace=wrap;rounded=0;" vertex="1" parent="1">
          <mxGeometry x="436" y="170" width="60" height="30" as="geometry" />
        </mxCell>
        <mxCell id="eQBqYXtXVvJBzuw9Swjc-26" value="暂停所有的用户线程" style="text;html=1;strokeColor=none;fillColor=none;align=center;verticalAlign=middle;whiteSpace=wrap;rounded=0;" vertex="1" parent="1">
          <mxGeometry x="434" y="223" width="64" height="30" as="geometry" />
        </mxCell>
        <mxCell id="eQBqYXtXVvJBzuw9Swjc-27" value="safepoint" style="text;html=1;strokeColor=none;fillColor=none;align=center;verticalAlign=middle;whiteSpace=wrap;rounded=0;" vertex="1" parent="1">
          <mxGeometry x="175" y="270" width="60" height="30" as="geometry" />
        </mxCell>
        <mxCell id="eQBqYXtXVvJBzuw9Swjc-30" value="safepoint" style="text;html=1;strokeColor=none;fillColor=none;align=center;verticalAlign=middle;whiteSpace=wrap;rounded=0;" vertex="1" parent="1">
          <mxGeometry x="385" y="270" width="60" height="30" as="geometry" />
        </mxCell>
        <mxCell id="eQBqYXtXVvJBzuw9Swjc-32" value="用户线程" style="text;html=1;strokeColor=none;fillColor=none;align=center;verticalAlign=middle;whiteSpace=wrap;rounded=0;" vertex="1" parent="1">
          <mxGeometry x="540" y="120" width="60" height="30" as="geometry" />
        </mxCell>
      </root>
    </mxGraphModel>
  </diagram>
  <diagram id="c-YH4YmaERYhX3vqQvaZ" name="ParNew &amp; Parallel收集器">
    <mxGraphModel dx="794" dy="438" grid="1" gridSize="10" guides="1" tooltips="1" connect="1" arrows="1" fold="1" page="1" pageScale="1" pageWidth="1169" pageHeight="827" math="0" shadow="0">
      <root>
        <mxCell id="0" />
        <mxCell id="1" parent="0" />
        <mxCell id="-IdJtlv47mfmaC8HE5Kt-1" value="" style="shape=singleArrow;whiteSpace=wrap;html=1;" vertex="1" parent="1">
          <mxGeometry x="140" y="180" width="80" height="20" as="geometry" />
        </mxCell>
        <mxCell id="-IdJtlv47mfmaC8HE5Kt-2" value="" style="shape=singleArrow;whiteSpace=wrap;html=1;" vertex="1" parent="1">
          <mxGeometry x="140" y="210" width="80" height="20" as="geometry" />
        </mxCell>
        <mxCell id="-IdJtlv47mfmaC8HE5Kt-3" value="" style="shape=singleArrow;whiteSpace=wrap;html=1;" vertex="1" parent="1">
          <mxGeometry x="140" y="240" width="80" height="20" as="geometry" />
        </mxCell>
        <mxCell id="-IdJtlv47mfmaC8HE5Kt-4" value="" style="shape=singleArrow;whiteSpace=wrap;html=1;" vertex="1" parent="1">
          <mxGeometry x="140" y="270" width="80" height="20" as="geometry" />
        </mxCell>
        <mxCell id="-IdJtlv47mfmaC8HE5Kt-5" value="" style="rounded=0;whiteSpace=wrap;html=1;fillColor=#000000;" vertex="1" parent="1">
          <mxGeometry x="230" y="180" width="10" height="110" as="geometry" />
        </mxCell>
        <mxCell id="-IdJtlv47mfmaC8HE5Kt-6" value="" style="shape=singleArrow;whiteSpace=wrap;html=1;fillColor=#999999;" vertex="1" parent="1">
          <mxGeometry x="246" y="235" width="80" height="20" as="geometry" />
        </mxCell>
        <mxCell id="-IdJtlv47mfmaC8HE5Kt-7" value="" style="rounded=0;whiteSpace=wrap;html=1;fillColor=#666666;" vertex="1" parent="1">
          <mxGeometry x="330" y="180" width="10" height="110" as="geometry" />
        </mxCell>
        <mxCell id="-IdJtlv47mfmaC8HE5Kt-8" value="" style="shape=singleArrow;whiteSpace=wrap;html=1;" vertex="1" parent="1">
          <mxGeometry x="350" y="180" width="80" height="20" as="geometry" />
        </mxCell>
        <mxCell id="-IdJtlv47mfmaC8HE5Kt-9" value="" style="shape=singleArrow;whiteSpace=wrap;html=1;" vertex="1" parent="1">
          <mxGeometry x="350" y="210" width="80" height="20" as="geometry" />
        </mxCell>
        <mxCell id="-IdJtlv47mfmaC8HE5Kt-10" value="" style="shape=singleArrow;whiteSpace=wrap;html=1;" vertex="1" parent="1">
          <mxGeometry x="350" y="240" width="80" height="20" as="geometry" />
        </mxCell>
        <mxCell id="-IdJtlv47mfmaC8HE5Kt-11" value="" style="shape=singleArrow;whiteSpace=wrap;html=1;" vertex="1" parent="1">
          <mxGeometry x="350" y="270" width="80" height="20" as="geometry" />
        </mxCell>
        <mxCell id="-IdJtlv47mfmaC8HE5Kt-12" value="" style="rounded=0;whiteSpace=wrap;html=1;fillColor=#000000;" vertex="1" parent="1">
          <mxGeometry x="440" y="180" width="10" height="110" as="geometry" />
        </mxCell>
        <mxCell id="-IdJtlv47mfmaC8HE5Kt-14" value="" style="rounded=0;whiteSpace=wrap;html=1;fillColor=#666666;" vertex="1" parent="1">
          <mxGeometry x="540" y="180" width="10" height="110" as="geometry" />
        </mxCell>
        <mxCell id="-IdJtlv47mfmaC8HE5Kt-15" value="" style="shape=singleArrow;whiteSpace=wrap;html=1;" vertex="1" parent="1">
          <mxGeometry x="560" y="180" width="80" height="20" as="geometry" />
        </mxCell>
        <mxCell id="-IdJtlv47mfmaC8HE5Kt-16" value="" style="shape=singleArrow;whiteSpace=wrap;html=1;" vertex="1" parent="1">
          <mxGeometry x="560" y="210" width="80" height="20" as="geometry" />
        </mxCell>
        <mxCell id="-IdJtlv47mfmaC8HE5Kt-17" value="" style="shape=singleArrow;whiteSpace=wrap;html=1;" vertex="1" parent="1">
          <mxGeometry x="560" y="240" width="80" height="20" as="geometry" />
        </mxCell>
        <mxCell id="-IdJtlv47mfmaC8HE5Kt-18" value="" style="shape=singleArrow;whiteSpace=wrap;html=1;" vertex="1" parent="1">
          <mxGeometry x="560" y="270" width="80" height="20" as="geometry" />
        </mxCell>
        <mxCell id="-IdJtlv47mfmaC8HE5Kt-19" value="用户线程" style="text;html=1;strokeColor=none;fillColor=none;align=center;verticalAlign=middle;whiteSpace=wrap;rounded=0;" vertex="1" parent="1">
          <mxGeometry x="150" y="150" width="60" height="30" as="geometry" />
        </mxCell>
        <mxCell id="-IdJtlv47mfmaC8HE5Kt-20" value="GC 线程" style="text;html=1;strokeColor=none;fillColor=none;align=center;verticalAlign=middle;whiteSpace=wrap;rounded=0;" vertex="1" parent="1">
          <mxGeometry x="256" y="160" width="60" height="30" as="geometry" />
        </mxCell>
        <mxCell id="-IdJtlv47mfmaC8HE5Kt-21" value="暂停所有的用户线程" style="text;html=1;strokeColor=none;fillColor=none;align=center;verticalAlign=middle;whiteSpace=wrap;rounded=0;" vertex="1" parent="1">
          <mxGeometry x="254" y="260" width="64" height="30" as="geometry" />
        </mxCell>
        <mxCell id="-IdJtlv47mfmaC8HE5Kt-22" value="用户线程" style="text;html=1;strokeColor=none;fillColor=none;align=center;verticalAlign=middle;whiteSpace=wrap;rounded=0;" vertex="1" parent="1">
          <mxGeometry x="360" y="150" width="60" height="30" as="geometry" />
        </mxCell>
        <mxCell id="-IdJtlv47mfmaC8HE5Kt-25" value="safepoint" style="text;html=1;strokeColor=none;fillColor=none;align=center;verticalAlign=middle;whiteSpace=wrap;rounded=0;" vertex="1" parent="1">
          <mxGeometry x="205" y="300" width="60" height="30" as="geometry" />
        </mxCell>
        <mxCell id="-IdJtlv47mfmaC8HE5Kt-26" value="safepoint" style="text;html=1;strokeColor=none;fillColor=none;align=center;verticalAlign=middle;whiteSpace=wrap;rounded=0;" vertex="1" parent="1">
          <mxGeometry x="415" y="300" width="60" height="30" as="geometry" />
        </mxCell>
        <mxCell id="-IdJtlv47mfmaC8HE5Kt-27" value="用户线程" style="text;html=1;strokeColor=none;fillColor=none;align=center;verticalAlign=middle;whiteSpace=wrap;rounded=0;" vertex="1" parent="1">
          <mxGeometry x="570" y="150" width="60" height="30" as="geometry" />
        </mxCell>
        <mxCell id="-IdJtlv47mfmaC8HE5Kt-28" value="" style="shape=singleArrow;whiteSpace=wrap;html=1;fillColor=#999999;" vertex="1" parent="1">
          <mxGeometry x="246" y="211" width="80" height="20" as="geometry" />
        </mxCell>
        <mxCell id="-IdJtlv47mfmaC8HE5Kt-29" value="" style="shape=singleArrow;whiteSpace=wrap;html=1;fillColor=#999999;" vertex="1" parent="1">
          <mxGeometry x="246" y="186" width="80" height="20" as="geometry" />
        </mxCell>
        <mxCell id="Nh5oIQmcCDfNh6zpBFbR-1" value="GC 线程" style="text;html=1;strokeColor=none;fillColor=none;align=center;verticalAlign=middle;whiteSpace=wrap;rounded=0;" vertex="1" parent="1">
          <mxGeometry x="465" y="160" width="60" height="30" as="geometry" />
        </mxCell>
        <mxCell id="Nh5oIQmcCDfNh6zpBFbR-2" value="" style="shape=singleArrow;whiteSpace=wrap;html=1;fillColor=#999999;" vertex="1" parent="1">
          <mxGeometry x="455" y="186" width="80" height="20" as="geometry" />
        </mxCell>
        <mxCell id="Nh5oIQmcCDfNh6zpBFbR-3" value="" style="shape=singleArrow;whiteSpace=wrap;html=1;fillColor=#999999;" vertex="1" parent="1">
          <mxGeometry x="455" y="211" width="80" height="20" as="geometry" />
        </mxCell>
        <mxCell id="Nh5oIQmcCDfNh6zpBFbR-4" value="" style="shape=singleArrow;whiteSpace=wrap;html=1;fillColor=#999999;" vertex="1" parent="1">
          <mxGeometry x="455" y="235" width="80" height="20" as="geometry" />
        </mxCell>
        <mxCell id="Nh5oIQmcCDfNh6zpBFbR-5" value="暂停所有的用户线程" style="text;html=1;strokeColor=none;fillColor=none;align=center;verticalAlign=middle;whiteSpace=wrap;rounded=0;" vertex="1" parent="1">
          <mxGeometry x="463" y="260" width="64" height="30" as="geometry" />
        </mxCell>
      </root>
    </mxGraphModel>
  </diagram>
  <diagram id="6Z-NGrg6Fia3lZJ7DkYX" name="CMS">
    <mxGraphModel dx="794" dy="438" grid="1" gridSize="10" guides="1" tooltips="1" connect="1" arrows="1" fold="1" page="1" pageScale="1" pageWidth="1169" pageHeight="827" math="0" shadow="0">
      <root>
        <mxCell id="0" />
        <mxCell id="1" parent="0" />
        <mxCell id="zrlTu-H70BIMc2_6_ggq-1" value="" style="shape=singleArrow;whiteSpace=wrap;html=1;" vertex="1" parent="1">
          <mxGeometry x="85" y="190" width="80" height="20" as="geometry" />
        </mxCell>
        <mxCell id="zrlTu-H70BIMc2_6_ggq-2" value="" style="shape=singleArrow;whiteSpace=wrap;html=1;" vertex="1" parent="1">
          <mxGeometry x="85" y="220" width="80" height="20" as="geometry" />
        </mxCell>
        <mxCell id="zrlTu-H70BIMc2_6_ggq-3" value="" style="shape=singleArrow;whiteSpace=wrap;html=1;" vertex="1" parent="1">
          <mxGeometry x="85" y="250" width="80" height="20" as="geometry" />
        </mxCell>
        <mxCell id="zrlTu-H70BIMc2_6_ggq-4" value="" style="shape=singleArrow;whiteSpace=wrap;html=1;" vertex="1" parent="1">
          <mxGeometry x="85" y="280" width="80" height="20" as="geometry" />
        </mxCell>
        <mxCell id="zrlTu-H70BIMc2_6_ggq-5" value="" style="rounded=0;whiteSpace=wrap;html=1;fillColor=#000000;" vertex="1" parent="1">
          <mxGeometry x="175" y="190" width="10" height="110" as="geometry" />
        </mxCell>
        <mxCell id="zrlTu-H70BIMc2_6_ggq-6" value="" style="shape=singleArrow;whiteSpace=wrap;html=1;fillColor=#999999;" vertex="1" parent="1">
          <mxGeometry x="191" y="245" width="80" height="20" as="geometry" />
        </mxCell>
        <mxCell id="zrlTu-H70BIMc2_6_ggq-7" value="" style="rounded=0;whiteSpace=wrap;html=1;fillColor=#666666;" vertex="1" parent="1">
          <mxGeometry x="275" y="190" width="10" height="110" as="geometry" />
        </mxCell>
        <mxCell id="zrlTu-H70BIMc2_6_ggq-8" value="" style="shape=singleArrow;whiteSpace=wrap;html=1;" vertex="1" parent="1">
          <mxGeometry x="295" y="190" width="80" height="20" as="geometry" />
        </mxCell>
        <mxCell id="zrlTu-H70BIMc2_6_ggq-9" value="" style="shape=singleArrow;whiteSpace=wrap;html=1;" vertex="1" parent="1">
          <mxGeometry x="295" y="220" width="80" height="20" as="geometry" />
        </mxCell>
        <mxCell id="zrlTu-H70BIMc2_6_ggq-11" value="" style="shape=singleArrow;whiteSpace=wrap;html=1;" vertex="1" parent="1">
          <mxGeometry x="295" y="280" width="80" height="20" as="geometry" />
        </mxCell>
        <mxCell id="zrlTu-H70BIMc2_6_ggq-12" value="" style="rounded=0;whiteSpace=wrap;html=1;fillColor=#000000;" vertex="1" parent="1">
          <mxGeometry x="385" y="190" width="10" height="110" as="geometry" />
        </mxCell>
        <mxCell id="zrlTu-H70BIMc2_6_ggq-13" value="" style="rounded=0;whiteSpace=wrap;html=1;fillColor=#666666;" vertex="1" parent="1">
          <mxGeometry x="485" y="190" width="10" height="110" as="geometry" />
        </mxCell>
        <mxCell id="zrlTu-H70BIMc2_6_ggq-18" value="用户线程" style="text;html=1;strokeColor=none;fillColor=none;align=center;verticalAlign=middle;whiteSpace=wrap;rounded=0;" vertex="1" parent="1">
          <mxGeometry x="95" y="160" width="60" height="30" as="geometry" />
        </mxCell>
        <mxCell id="zrlTu-H70BIMc2_6_ggq-19" value="GC 线程" style="text;html=1;strokeColor=none;fillColor=none;align=center;verticalAlign=middle;whiteSpace=wrap;rounded=0;" vertex="1" parent="1">
          <mxGeometry x="201" y="220" width="60" height="30" as="geometry" />
        </mxCell>
        <mxCell id="zrlTu-H70BIMc2_6_ggq-20" value="暂停所有的用户线程" style="text;html=1;strokeColor=none;fillColor=none;align=center;verticalAlign=middle;whiteSpace=wrap;rounded=0;" vertex="1" parent="1">
          <mxGeometry x="199" y="270" width="64" height="30" as="geometry" />
        </mxCell>
        <mxCell id="zrlTu-H70BIMc2_6_ggq-21" value="&lt;b&gt;并发标记&lt;/b&gt;" style="text;html=1;strokeColor=none;fillColor=none;align=center;verticalAlign=middle;whiteSpace=wrap;rounded=0;" vertex="1" parent="1">
          <mxGeometry x="305" y="160" width="60" height="30" as="geometry" />
        </mxCell>
        <mxCell id="zrlTu-H70BIMc2_6_ggq-22" value="safepoint" style="text;html=1;strokeColor=none;fillColor=none;align=center;verticalAlign=middle;whiteSpace=wrap;rounded=0;" vertex="1" parent="1">
          <mxGeometry x="150" y="310" width="60" height="30" as="geometry" />
        </mxCell>
        <mxCell id="zrlTu-H70BIMc2_6_ggq-23" value="safepoint" style="text;html=1;strokeColor=none;fillColor=none;align=center;verticalAlign=middle;whiteSpace=wrap;rounded=0;" vertex="1" parent="1">
          <mxGeometry x="360" y="310" width="60" height="30" as="geometry" />
        </mxCell>
        <mxCell id="zrlTu-H70BIMc2_6_ggq-27" value="&lt;b&gt;重新标记&lt;/b&gt;" style="text;html=1;strokeColor=none;fillColor=none;align=center;verticalAlign=middle;whiteSpace=wrap;rounded=0;" vertex="1" parent="1">
          <mxGeometry x="410" y="160" width="60" height="30" as="geometry" />
        </mxCell>
        <mxCell id="zrlTu-H70BIMc2_6_ggq-28" value="" style="shape=singleArrow;whiteSpace=wrap;html=1;fillColor=#999999;" vertex="1" parent="1">
          <mxGeometry x="400" y="196" width="80" height="20" as="geometry" />
        </mxCell>
        <mxCell id="zrlTu-H70BIMc2_6_ggq-29" value="" style="shape=singleArrow;whiteSpace=wrap;html=1;fillColor=#999999;" vertex="1" parent="1">
          <mxGeometry x="400" y="221" width="80" height="20" as="geometry" />
        </mxCell>
        <mxCell id="zrlTu-H70BIMc2_6_ggq-30" value="" style="shape=singleArrow;whiteSpace=wrap;html=1;fillColor=#999999;" vertex="1" parent="1">
          <mxGeometry x="400" y="245" width="80" height="20" as="geometry" />
        </mxCell>
        <mxCell id="zrlTu-H70BIMc2_6_ggq-31" value="暂停所有的用户线程" style="text;html=1;strokeColor=none;fillColor=none;align=center;verticalAlign=middle;whiteSpace=wrap;rounded=0;" vertex="1" parent="1">
          <mxGeometry x="408" y="270" width="64" height="30" as="geometry" />
        </mxCell>
        <mxCell id="zrlTu-H70BIMc2_6_ggq-32" value="&lt;b&gt;初始标记&lt;/b&gt;" style="text;html=1;strokeColor=none;fillColor=none;align=center;verticalAlign=middle;whiteSpace=wrap;rounded=0;" vertex="1" parent="1">
          <mxGeometry x="201" y="160" width="60" height="30" as="geometry" />
        </mxCell>
        <mxCell id="zrlTu-H70BIMc2_6_ggq-33" value="" style="shape=singleArrow;whiteSpace=wrap;html=1;fillColor=#999999;" vertex="1" parent="1">
          <mxGeometry x="295" y="250" width="80" height="20" as="geometry" />
        </mxCell>
        <mxCell id="zrCPTVFIGIjWTFFgAV9I-1" value="" style="shape=singleArrow;whiteSpace=wrap;html=1;" vertex="1" parent="1">
          <mxGeometry x="505" y="190" width="80" height="20" as="geometry" />
        </mxCell>
        <mxCell id="zrCPTVFIGIjWTFFgAV9I-2" value="" style="shape=singleArrow;whiteSpace=wrap;html=1;" vertex="1" parent="1">
          <mxGeometry x="505" y="220" width="80" height="20" as="geometry" />
        </mxCell>
        <mxCell id="zrCPTVFIGIjWTFFgAV9I-3" value="" style="shape=singleArrow;whiteSpace=wrap;html=1;" vertex="1" parent="1">
          <mxGeometry x="505" y="280" width="80" height="20" as="geometry" />
        </mxCell>
        <mxCell id="zrCPTVFIGIjWTFFgAV9I-4" value="&lt;b&gt;并发清理&lt;/b&gt;" style="text;html=1;strokeColor=none;fillColor=none;align=center;verticalAlign=middle;whiteSpace=wrap;rounded=0;" vertex="1" parent="1">
          <mxGeometry x="515" y="160" width="60" height="30" as="geometry" />
        </mxCell>
        <mxCell id="zrCPTVFIGIjWTFFgAV9I-5" value="" style="shape=singleArrow;whiteSpace=wrap;html=1;fillColor=#999999;" vertex="1" parent="1">
          <mxGeometry x="505" y="250" width="80" height="20" as="geometry" />
        </mxCell>
        <mxCell id="zrCPTVFIGIjWTFFgAV9I-6" value="" style="rounded=0;whiteSpace=wrap;html=1;fillColor=#666666;" vertex="1" parent="1">
          <mxGeometry x="594" y="190" width="10" height="110" as="geometry" />
        </mxCell>
      </root>
    </mxGraphModel>
  </diagram>
</mxfile>
